<?xml version="1.0" encoding="iso-8859-1"?>
<!-- Generator: Adobe Illustrator 19.0.0, SVG Export Plug-In . SVG Version: 6.00 Build 0)  -->
<svg
  version="1.1"
  xmlns="http://www.w3.org/2000/svg"
  xmlns:xlink="http://www.w3.org/1999/xlink"
  x="0px"
  y="0px"
  viewBox="0 0 402 402"
  style="enable-background: new 0 0 402 402"
  xml:space="preserve"
  height="40px"
  width="40px"
>
  <path
    fill="white"
    d="M386.4,151.4H273.2c-0.4,0-0.4,0-0.8,0v-31.6c0-10.4-6.8-18-15.2-18H144c-8.4,0-15.2,8-15.2,18v8.4c-0.4,0-0.4,0-0.8,0
			H15.2C6.8,128.2,0,135.8,0,145v138.4c0,9.2,6.8,16.8,15.2,16.8h113.2c2.8,0,5.6-0.8,8-2.4c2.4,1.6,4.8,2.4,8,2.4h113.2
			c2.8,0,5.2-0.8,7.6-2.4c2.4,1.6,5.2,2.4,8.4,2.4h113.2c8.4,0,15.2-6.8,15.2-15.2V166.6C401.6,158.2,394.8,151.4,386.4,151.4z
			 M129.2,281.4v1.6h-0.4c0,1.2-0.4,2-0.8,2H15.2c0,0-0.8-0.8-0.8-2V144.6c0-1.2,0.4-2,0.8-2h113.2c0.4,0,0.8,0.8,0.8,2V281.4z
			 M258,166.6v114.8c0,2-0.8,3.2-1.2,3.6H144.4c-0.4-0.4-1.2-1.6-1.2-3.6V144.6v-24.8c0-2.4,0.8-3.6,0.8-3.6h112.8
			c0.4,0.4,1.2,1.6,1.2,3.6V166.6z M387.6,284.2h-0.4c0,0.4-0.4,0.8-0.8,0.8H273.2c-0.4,0-0.4-0.4-0.4-0.8v-2.8V166.6
			c0-0.4,0.4-0.8,0.8-0.8h113.2c0.4,0,0.8,0.4,0.8,0.8V284.2z"
  />
  <path
    fill="white"
    d="M210.8,132.6c-1.6-0.8-2.8-1.6-4.8-1.6c-1.6,0-2.8,0.4-3.2,0.8c-0.4,0.8-2,2.4-4,5.2c-2,2.8-4.4,5.2-6.8,7.2
			c-2.4,2.4-6,4.4-10,6.4c-2.8,1.2-4.8,2.4-6,3.2c-1.2,0.8-1.6,2-1.6,4c0,1.6,0.4,2.8,1.6,4c1.2,1.2,2.4,1.6,4,1.6
			c3.2,0,9.2-3.6,18-10.4v47.6c0,2.8,0.8,4.8,2,6.4c1.2,1.6,3.2,2,5.2,2c4.8,0,7.2-3.6,7.2-10.4v-60
			C212.4,136.2,212,134.2,210.8,132.6z"
  />
  <path
    fill="white"
    d="M92.8,236.6c-1.2-0.8-2.8-1.6-5.2-1.6H65.2c0.8-1.2,1.6-2,2-2.8c1.6-2,4.4-4.8,8.8-8.4c4.4-3.6,7.2-6,9.2-7.6
			c2-1.6,3.6-4,5.6-6.8c1.6-2.8,2.8-6,2.8-9.6c0-2.4-0.4-4.4-1.2-6.4c-0.8-2-2-4-3.6-5.6c-1.6-1.6-3.2-2.8-5.2-3.6
			c-3.2-1.2-6.8-2-11.2-2c-3.6,0-6.8,0.4-9.6,1.6c-2.8,1.2-4.8,2.4-6.8,4.4s-3.2,3.6-4,6c-0.8,2-1.2,4.4-1.2,6c0,1.6,0.4,2.8,1.6,4
			c0.8,0.8,2,1.6,3.6,1.6s2.8-0.4,3.6-1.6c0.8-1.2,1.6-2.4,2.4-4.4s1.2-3.2,1.6-3.6c2-3.2,5.2-4.8,8.8-4.8c1.6,0,3.6,0.4,4.8,1.2
			c1.6,0.8,2.8,2,3.6,3.2c0.8,1.6,1.2,3.2,1.2,4.8c0,1.6-0.4,3.6-1.2,5.2c-0.8,1.6-2,3.6-3.6,5.2c-1.6,1.6-3.6,3.2-6,5.2
			c-1.2,0.8-3.6,2.8-6.4,5.6c-3.2,2.8-6.4,6.4-10.4,10c-0.8,0.8-1.6,2.4-2.4,4c-0.8,1.6-1.2,3.2-1.2,4c0,1.6,0.8,3.2,2,4
			c1.2,1.2,2.8,1.6,5.2,1.6h30.8c2,0,3.2-0.4,4.4-1.6c0.8-0.8,1.2-2,1.2-3.6C94.4,238.6,94,237.4,92.8,236.6z"
  />
  <path
    fill="white"
    d="M351.2,229.4c-1.2-2.8-2.4-4.4-3.6-6c-1.6-1.6-3.6-2.8-5.6-4c2.4-2,4-4,5.2-6s2-4.4,2-7.2c0-2-0.4-4.4-1.2-6
			c-0.8-2-2-3.6-4-4.8c-1.6-1.6-3.6-2.4-6-3.2c-2.4-0.8-4.8-1.2-7.6-1.2c-3.2,0-6,0.4-8.8,1.2c-2.4,0.8-4.8,2-6.4,3.6
			c-1.6,1.6-3.2,3.2-4,4.8c-0.8,1.6-1.2,3.2-1.2,4.8c0,1.6,0.4,2.8,1.6,3.6c0.8,0.8,2,1.2,3.2,1.2c0.8,0,2,0,2.4-0.4
			c0.8-0.4,1.2-0.8,1.6-1.6c0.4-1.2,1.2-2.4,1.6-3.6c0.4-1.2,1.2-2.4,2-3.2s1.6-1.6,2.8-2c1.2-0.4,2.4-0.8,4.4-0.8
			c2.4,0,4.8,0.8,6,2.4c1.6,1.6,2.4,3.6,2.4,5.6c0,2.8-0.8,5.2-2.8,6.8s-4,2.4-6.8,2.4h-1.6c-2,0-3.6,0.4-4.8,1.2s-1.6,2-1.6,3.2
			c0,1.6,0.4,2.4,1.2,3.2c0.8,0.8,2,1.2,3.6,1.2c0.4,0,1.2,0,2.4,0s2,0,2.8,0c3.2,0,6,0.8,7.6,2.8c2,2,2.8,4.4,2.8,8
			c0,2.4-0.4,4.4-1.6,6c-1.2,1.6-2.4,3.2-4,4c-1.6,0.8-3.2,1.2-5.2,1.2c-3.2,0-5.6-0.8-7.2-2.8c-1.6-2-3.2-4.8-4.8-8.8
			c-0.4-0.8-0.8-1.2-1.6-1.6c-0.8-0.4-1.6-0.8-2.4-0.8c-1.6,0-2.8,0.4-4,1.6s-1.6,2.4-1.6,4c0,1.2,0.4,2.8,1.2,4.8s2.4,4,4,5.6
			c1.6,2,4,3.2,6.8,4.8c2.8,1.2,6,2,9.2,2s6.4-0.4,9.2-1.6s5.2-2.4,7.2-4.4s3.6-4,4.8-6.4c1.2-2.4,1.6-4.8,1.6-7.6
			C352.4,233.4,352,231,351.2,229.4z"
  />
</svg>
